<svg xmlns="http://www.w3.org/2000/svg" viewBox="0 0 74.54 64"><defs><style>.cls-1{fill:#b69564;}</style></defs><g id="圖層_2" data-name="圖層 2"><g id="_0-ui_kits" data-name="0-ui_kits"><g id="logo-啤女"><path id="BEERU" class="cls-1" d="M44.76,61.12a2.27,2.27,0,0,0,.68-.76,1.73,1.73,0,0,0,.19-1.09,1.9,1.9,0,0,0-.87-1.48,3.25,3.25,0,0,0-2.14-.34,8.3,8.3,0,0,0-.94.17,4.07,4.07,0,0,0-.77.26,1.16,1.16,0,0,0-.29.22.47.47,0,0,0-.08.34l.55,4.68a1.06,1.06,0,0,0,.11.41.57.57,0,0,0,.2.23.66.66,0,0,0,.3.09,2.91,2.91,0,0,0,.41,0l.46-.09.33-.1-.22-1.9.53-.07,1,1.25a1.79,1.79,0,0,0,.22.25,1.11,1.11,0,0,0,.24.2,1,1,0,0,0,.3.1,1,1,0,0,0,.38,0,1.06,1.06,0,0,0,.57-.25,1,1,0,0,0,.3-.58,6.28,6.28,0,0,0-.64-.71C45.31,61.7,45,61.42,44.76,61.12Zm-1-1a.92.92,0,0,1-.58.26l-.63.08-.18-1.49.2-.06.24,0a1.19,1.19,0,0,1,.79.1.68.68,0,0,1,.31.54A.74.74,0,0,1,43.73,60.09ZM25.27,55.71a10.11,10.11,0,0,0-1-.27,4.37,4.37,0,0,0-.87-.1.86.86,0,0,0-.35.08.42.42,0,0,0-.21.28L21.4,60.14a.75.75,0,0,0,.3.87,2.27,2.27,0,0,0,.38.25c.14.08.29.15.44.22a3.93,3.93,0,0,0,.43.18l.38.14a3.93,3.93,0,0,0,2.16.19,1.62,1.62,0,0,0,1.15-1.17,1.37,1.37,0,0,0,0-1,1.72,1.72,0,0,0-.64-.75,1.45,1.45,0,0,0,.81-.23,1.24,1.24,0,0,0,.48-.66A1.44,1.44,0,0,0,27,56.72,3.8,3.8,0,0,0,25.27,55.71ZM25,60.2a.57.57,0,0,1-.41.41,1.25,1.25,0,0,1-.68,0l-.4-.14a1.85,1.85,0,0,1-.32-.17l.37-1.16.78.25a1.43,1.43,0,0,1,.6.34A.52.52,0,0,1,25,60.2Zm.6-2.39a.59.59,0,0,1-.33.39,1,1,0,0,1-.64,0l-.7-.23.37-1.12.3.06.33.1a1.15,1.15,0,0,1,.59.36A.49.49,0,0,1,25.56,57.81Zm-6.71-2.14a1.47,1.47,0,0,1-.13,1.1,1.45,1.45,0,0,1-.84.74,1.32,1.32,0,0,1-.44.08,1.57,1.57,0,0,1-.71-.19,1.4,1.4,0,0,1-.75-.89,1.5,1.5,0,0,1,.14-1.11,1.43,1.43,0,0,1,2-.62A1.41,1.41,0,0,1,18.85,55.67Zm39.87,1.54a1.45,1.45,0,0,1-.78.87,1.57,1.57,0,0,1-.68.16,1.32,1.32,0,0,1-.48-.09,1.56,1.56,0,0,1-.91-1.87,1.45,1.45,0,0,1,.78-.87,1.43,1.43,0,0,1,1.16-.07,1.5,1.5,0,0,1,.81.76A1.49,1.49,0,0,1,58.72,57.21Zm-25.41.46a1.1,1.1,0,0,1,.07.31,1.21,1.21,0,0,1,0,.38.81.81,0,0,1-.25.51.6.6,0,0,1-.46.08l-2.08-.34-.15.92,2.22.37a1.11,1.11,0,0,1,.07.3,1.21,1.21,0,0,1,0,.38.74.74,0,0,1-.25.5.56.56,0,0,1-.45.09l-1.81-.3-.17,1,2.53.41a2,2,0,0,1,.08.31,1.71,1.71,0,0,1,0,.39.77.77,0,0,1-.25.51.6.6,0,0,1-.46.09l-2.88-.48a.9.9,0,0,1-.63-.35,1,1,0,0,1-.14-.72L29,57.9a1,1,0,0,1,.36-.63.93.93,0,0,1,.71-.14ZM52.82,59.3a2.66,2.66,0,0,1,.08,1,2,2,0,0,1-.31.88,2.34,2.34,0,0,1-.68.69,3.38,3.38,0,0,1-1,.47,3.27,3.27,0,0,1-1.13.14,2.42,2.42,0,0,1-.95-.23,2.15,2.15,0,0,1-.72-.59,2.37,2.37,0,0,1-.44-.9l-1-3.68.32-.15.43-.15a1.66,1.66,0,0,1,.4-.08.8.8,0,0,1,.32,0,.61.61,0,0,1,.24.19,1.3,1.3,0,0,1,.17.39l.82,2.94a1,1,0,0,0,.46.65.92.92,0,0,0,.73.07.9.9,0,0,0,.6-.44,1.06,1.06,0,0,0,0-.79l-1-3.65.32-.15a3,3,0,0,1,.44-.16,1.53,1.53,0,0,1,.4-.07.62.62,0,0,1,.31,0,.51.51,0,0,1,.25.19,1.45,1.45,0,0,1,.17.39Zm-16.39-.08,0,.93,2.25.06a2.13,2.13,0,0,1,.12.29,1.53,1.53,0,0,1,0,.38.79.79,0,0,1-.17.53.59.59,0,0,1-.44.15l-1.84-.05,0,1.05,2.57.07a.87.87,0,0,1,.12.29,1.2,1.2,0,0,1,0,.38.67.67,0,0,1-.18.54.57.57,0,0,1-.43.16l-2.92-.08a1,1,0,0,1-.68-.27.92.92,0,0,1-.23-.69l.12-4.22a.9.9,0,0,1,.26-.68.93.93,0,0,1,.69-.23l3.3.09a1.7,1.7,0,0,1,.12.29,1.58,1.58,0,0,1,0,.38.75.75,0,0,1-.18.54.63.63,0,0,1-.44.15Z"/><g id="啤女"><path id="circle" class="cls-1" d="M48,0A26.36,26.36,0,0,0,37.27,2.3,26.49,26.49,0,1,0,26.5,53a26.36,26.36,0,0,0,10.77-2.3A26.49,26.49,0,1,0,48,0Zm0,51.5h0c-.72,0-1.42,0-2.12-.1l-.38,0c-.69-.07-1.37-.17-2-.29l-.24,0a24.8,24.8,0,0,1-4.11-1.17l-.09,0h0c-.61-.23-1.21-.48-1.8-.76h0c-.59.28-1.19.53-1.8.76h0l-.09,0A24.8,24.8,0,0,1,31.28,51l-.24,0c-.67.12-1.35.22-2,.29l-.38,0c-.7.06-1.4.1-2.12.1h0A25.06,25.06,0,0,1,3.69,36.72c-.14-.31-.27-.63-.4-.95a24.91,24.91,0,0,1-1.22-4c0-.16-.07-.33-.1-.5A24.6,24.6,0,0,1,1.5,26.5a25,25,0,0,1,25-25c.72,0,1.43,0,2.13.1l.37,0c.69.07,1.37.17,2,.29l.23.05a24.64,24.64,0,0,1,4.12,1.17l.09,0h0c.61.23,1.21.48,1.8.76.59-.28,1.19-.53,1.8-.76h0l.09,0A24.64,24.64,0,0,1,43.27,2l.23-.05c.67-.12,1.35-.22,2-.29l.36,0c.71-.06,1.41-.1,2.13-.1a25,25,0,0,1,25,25h0A25,25,0,0,1,48,51.5ZM48,3.8A22.65,22.65,0,0,0,37.27,6.52a22.7,22.7,0,1,0,0,40A22.7,22.7,0,1,0,48,3.8ZM68.66,34A22,22,0,0,1,48,48.45c-.47,0-.94,0-1.4,0l-.48,0c-.3,0-.6,0-.89-.09l-.57-.08-.78-.13-.6-.13-.72-.17L42,47.59l-.67-.2-.62-.21-.64-.24-.6-.25-.62-.28-.58-.27L38.05,46h0l-.79-.41h0l-.78.41h0l-.21.11-.58.27-.62.28-.6.25-.64.24-.62.21-.67.2-.61.17-.72.17-.6.13-.78.13-.57.08c-.29,0-.59.07-.89.09l-.48,0c-.46,0-.93,0-1.4,0h0a21.88,21.88,0,0,1-14.65-5.62l-.14-.12A21.94,21.94,0,0,1,26.5,4.55h0c.47,0,.94,0,1.4,0l.48,0c.3,0,.6.05.89.09l.57.08.78.13.6.13.72.17.61.17.67.2.62.21.64.24.6.25.62.28.58.27.21.11h0l.78.41h0L38.06,7h0l.21-.11.58-.27.62-.28.6-.25.64-.24.62-.21.67-.2.61-.17.72-.17.6-.13.78-.13.57-.08c.29,0,.59-.07.89-.09l.48,0c.46,0,.93,0,1.4,0A21.93,21.93,0,0,1,70,26.5h0A21.9,21.9,0,0,1,68.66,34Z"/><path id="啤女-2" data-name="啤女" class="cls-1" d="M19.22,30.5a3.59,3.59,0,0,1-2.17.72h-.43v-1.9H14.75v2.1c0,.3-1.05.9-2.18.9h-.4V16.38l2.68,1.15h1.52l1.28-1.4,2.57,2.05a1.69,1.69,0,0,1-1,.52Zm-2.6-1.9V18.25H14.75V28.6Zm15.93.82s1.57,1.4,2.47,2.33c-.08.27-.35.4-.7.4H30.05V37c0,.22-1.28.7-2.38.7h-.52v-5.5H18.77l-.2-.7h8.58V27.17l3.75.35c0,.3-.23.53-.85.63v3.3H31.2ZM23.17,26.9c0,.17-.82.77-2.17.77h-.45V16.45l2.95,1.13h1.4c.17-1,.42-2.38.55-3.35l4,.82c-.1.4-.45.6-1,.6-.62.55-1.6,1.33-2.35,1.93h4.55l1.27-1.4,2.65,2.05a1.78,1.78,0,0,1-.92.47v7.85a4,4,0,0,1-2.3.77h-.45v-1h-3.3c-.9,1.87-2.95,3.52-7.6,4.55l-.17-.3c3-1.2,4.52-2.63,5.25-4.25H23.17Zm0-8.62v3.17H25.7V18.28Zm2.18,7.32a9.64,9.64,0,0,0,.35-2.83v-.59H23.17V25.6Zm5.57,0V22.18H28.3v.57a9.16,9.16,0,0,1-.38,2.85ZM28.3,18.28v3.17h2.62V18.28Zm31.62.7s2,1.55,3.17,2.59c-.07.28-.35.4-.72.4H57.6a18.69,18.69,0,0,1-3.48,8.83c10.2,3.82,6.85,7.67,4.23,6.5a29.65,29.65,0,0,0-6.1-4.58c-2.7,2.3-6.65,4-12.47,4.85l-.15-.3c4.87-1.45,8.17-3.4,10.42-5.77a55.58,55.58,0,0,0-7.18-3.08A64.57,64.57,0,0,0,45.37,22H40l-.2-.72h5.85c1-2.77,1.8-5.5,2.12-7l4.15,1.08c-.07.27-.27.52-1.05.52-.42,1.33-1.1,3.28-1.87,5.4h5.35c.12-1.05.2-2.15.25-3.22l4.32.92c-.1.43-.42.63-1,.63-.05.57-.12,1.12-.2,1.67h.43Zm-11.2,3c-.82,2.3-1.75,4.68-2.6,6.55,2,.45,3.7.9,5.23,1.35A17.84,17.84,0,0,0,54.27,22Z"/></g></g></g></g></svg>